# xmcd CD database file
#
# Track frame offsets:
#	150
#	20867
#	42869
#	66100
#	85091
#	105434
#	124360
#	141927
#	162672
#	181520
#	202723
#	224365
#	246299
#	268104
#	290060
#	311643
#	332967
#
# Disc length: 4767 seconds
#
# Revision: 0
# Processed by: cddbd v1.5.2PL0 Copyright (c) Steve Scherf et al.
# Submitted via: CDex 1.50
#
DISCID=04129d11
DTITLE=Maelo Ruiz - Te va a doler
DYEAR=1900
DGENRE=Salsa
TTITLE0=Regalame una noche
TTITLE1=No mas mentiras
TTITLE2=No te vayas
TTITLE3=Fuiste mia
TTITLE4=Besame
TTITLE5=Cuando la la olvide que?
TTITLE6=Deseo
TTITLE7=Dile a tu sueño
TTITLE8=Por que te amo
TTITLE9=Soy tuyo
TTITLE10=Vete
TTITLE11=Vivir asi
TTITLE12=Juegate la suerte
TTITLE13=Te va a doler
TTITLE14=Por favor señora
TTITLE15=Me niegas tanto amor
TTITLE16=Te necesito
EXTD=
EXTT0=
EXTT1=
EXTT2=
EXTT3=
EXTT4=
EXTT5=
EXTT6=
EXTT7=
EXTT8=
EXTT9=
EXTT10=
EXTT11=
EXTT12=
EXTT13=
EXTT14=
EXTT15=
EXTT16=
PLAYORDER=
